<svg xmlns="http://www.w3.org/2000/svg" xmlns:xlink="http://www.w3.org/1999/xlink" width="782" height="144" viewBox="0 0 782 144">
  <defs>
    <clipPath id="clip-path">
      <rect id="Rectangle_22272" data-name="Rectangle 22272" width="609.866" height="101.356" transform="translate(0 0)" fill="none"/>
    </clipPath>
    <linearGradient id="linear-gradient" x1="0.5" x2="0.5" y2="1.54" gradientUnits="objectBoundingBox">
      <stop offset="0" stop-color="#9f38eb"/>
      <stop offset="1" stop-color="#2188c6"/>
    </linearGradient>
    <clipPath id="clip-QuickPerps">
      <rect width="782" height="144"/>
    </clipPath>
  </defs>
  <g id="QuickPerps" clip-path="url(#clip-QuickPerps)">
    <g id="Group_25982" data-name="Group 25982" transform="translate(-253.121 -331.729)">
      <g id="Group_25886" data-name="Group 25886" transform="translate(416.365 361.153)">
        <g id="Group_25886-2" data-name="Group 25886" transform="translate(0 0)" clip-path="url(#clip-path)">
          <path id="Path_16262" data-name="Path 16262" d="M11.938,10.49Q22.891,0,38.886,0A37.618,37.618,0,0,1,65.659,10.374Q77.77,21.791,77.77,40.972q0,15.184-7.7,25.673Q61.732,77.944,46.448,80.9q7.18,10.341,17.369,14.674a58.442,58.442,0,0,0,15.46,3.581v2.2H74.411a83.4,83.4,0,0,1-17.057-1.565A52,52,0,0,1,43.831,95.04a41.156,41.156,0,0,1-11.266-8.692A66.251,66.251,0,0,0,26.8,80.494l-1.509-.7q-9.864-4.578-15.258-10.432Q0,58.531,0,40.972,0,21.965,11.938,10.49m8.874,58.153q7.37,8.955,18.1,8.954,10.5,0,17.956-8.722t7.456-27.9q0-19.411-7.542-28.048T38.914,4.288q-10.675,0-18.072,8.954t-7.4,27.729q0,18.72,7.367,27.671" transform="translate(0 0)" fill="#fff"/>
          <path id="Path_16263" data-name="Path 16263" d="M103.815,1.5V3.7q-6.839.464-8.867,2.289t-2.028,8.374V52.324q0,9.33,2.55,14.545,4.751,9.5,18.023,9.5,14.544,0,19.529-9.735,2.781-5.447,2.781-16.806V18.944q0-9.677-2.318-12.142t-8.808-3.1V1.5h27.468V3.7q-6.9.754-9.011,3.331t-2.115,11.91V49.832q0,12.285-3.768,19.182Q130.3,81.7,110.828,81.705q-19.24,0-26.194-12.518-3.767-6.721-3.766-17.733V14.366q0-6.49-2-8.316T70.146,3.7V1.5Z" transform="translate(8.393 0.179)" fill="#fff"/>
          <path id="Path_16264" data-name="Path 16264" d="M147.113,77.822q7.242-.519,9.388-2.162t2.144-8.5V14.366q0-6.547-2.144-8.431T147.113,3.7V1.5h35.118V3.7q-7.244.348-9.388,2.231T170.7,14.366V67.16q0,6.859,2.144,8.5t9.388,2.162v2.2H147.113Z" transform="translate(17.603 0.179)" fill="#fff"/>
          <path id="Path_16265" data-name="Path 16265" d="M233.319,2.171a64.941,64.941,0,0,0,7.591,1.912,5.982,5.982,0,0,0,3.188-.927,4.844,4.844,0,0,0,2.086-2.9h2.492l1.1,26.658h-2.723a38.453,38.453,0,0,0-6.2-12.808q-7.3-9.155-19.645-9.157a24.951,24.951,0,0,0-20.37,9.852q-7.912,9.852-7.91,27.121,0,15.88,8.316,25.353a26.811,26.811,0,0,0,21.065,9.475,33.823,33.823,0,0,0,16.98-4.4,51.031,51.031,0,0,0,9.794-7.534l2.2,2.2a39.781,39.781,0,0,1-9.794,8.75,39.359,39.359,0,0,1-21.616,6.375q-19.124,0-30.366-12.228-10.374-11.3-10.373-28.222,0-17.327,10.954-29.092Q201.62.26,220.106.259a48.551,48.551,0,0,1,13.213,1.912" transform="translate(21.434 0.031)" fill="#fff"/>
          <path id="Path_16266" data-name="Path 16266" d="M247.014,78q7.242-.581,8.982-2.583t1.739-9.547V14.383q0-6.442-1.941-8.329T247.014,3.7V1.5H280.8V3.7q-6.955.349-8.983,2.318t-2.028,8.338V38.682q10.963-9.345,17.926-15.9,12.472-11.849,12.473-15.2a3.008,3.008,0,0,0-2.117-3.122,18.748,18.748,0,0,0-6-.751V1.5h31.1V3.7a26.369,26.369,0,0,0-8.968,2.192q-3.28,1.631-9.083,7.138L281.945,34.506,310.21,65.045q7.719,8.231,10.5,10.274T328.9,78v2.029H292.6V78a26.689,26.689,0,0,0,6.666-.783A2.363,2.363,0,0,0,301,74.8a7.274,7.274,0,0,0-1.131-3.019,26.514,26.514,0,0,0-3.567-4.7l-22.858-24.7-3.659,3.394V67.256q0,6.619,2,8.388T280.51,78v2.029h-33.5Z" transform="translate(29.556 0.179)" fill="#fff"/>
          <path id="Path_16267" data-name="Path 16267" d="M327.767,75.39q4.605-.432,5.747-1.822t1.141-6.366V32.288q0-4.212-1.279-5.55t-5.61-1.693v-1.5h21.255q10.235,0,15.667,3.976A12.376,12.376,0,0,1,370.121,38q0,8.226-6.023,11.927t-15.076,3.7q-1.3,0-3.325-.059t-3.012-.059V68.147q0,4.541,1.4,5.717t6.24,1.526v1.5H327.767Zm27.2-47.354a21.725,21.725,0,0,0-8.659-1.5q-2.48,0-3.051.493a2.943,2.943,0,0,0-.571,2.184V50.237q2.163.2,2.834.236t1.3.039a20.018,20.018,0,0,0,8.738-1.574q5.787-2.874,5.786-10.746,0-7.4-6.376-10.155" transform="translate(39.219 2.817)" fill="#fff"/>
          <path id="Path_16268" data-name="Path 16268" d="M370.554,75.39Q375,74.921,376.32,73.8t1.319-5.658V32.288q0-4.291-1.3-5.609t-5.786-1.634v-1.5h42.827l.276,11.534h-2.047q-1.022-5.329-3.07-6.9t-9.132-1.568H388.433q-1.777,0-2.191.571a3.9,3.9,0,0,0-.414,2.145v17.99h12.438q5.157,0,6.574-1.528t2.283-6.187h1.89V58.228h-1.89q-.906-4.684-2.322-6.2t-6.535-1.516H385.827V70.469q0,2.4,1.517,2.835t9.087.432q8.2,0,12.1-1.79t7.012-8.68h2.244l-3.661,13.619H370.554Z" transform="translate(44.339 2.817)" fill="#fff"/>
          <path id="Path_16269" data-name="Path 16269" d="M419.272,75.39q4.644-.432,5.786-1.8T426.2,67.2V32.288q0-4.251-1.279-5.57t-5.648-1.673v-1.5H441.59A32.894,32.894,0,0,1,453.2,25.318q8.817,3.34,8.817,12.3,0,6.014-3.916,9.238T447.455,51.1l16.611,20.459a11.135,11.135,0,0,0,3.071,2.733,10.049,10.049,0,0,0,3.936,1.094v1.5H458.09L437.925,52.048l-3.538.2V68.133q0,4.474,1.358,5.669t5.924,1.589v1.5h-22.4Zm27.554-27.948q6.415-2.632,6.416-9.9,0-6.993-5.746-9.546a20.208,20.208,0,0,0-8.149-1.376q-3.424,0-4.192.492t-.767,2.3V49.253q8.7-.314,12.438-1.81" transform="translate(50.168 2.817)" fill="#fff"/>
          <path id="Path_16270" data-name="Path 16270" d="M468.688,75.39q4.605-.432,5.746-1.822t1.142-6.366V32.288q0-4.212-1.279-5.55t-5.609-1.693v-1.5h21.256q10.235,0,15.666,3.976A12.377,12.377,0,0,1,511.042,38q0,8.226-6.023,11.927t-15.076,3.7q-1.3,0-3.325-.059t-3.012-.059V68.147q0,4.541,1.4,5.717t6.24,1.526v1.5H468.688Zm27.2-47.354a21.72,21.72,0,0,0-8.659-1.5q-2.479,0-3.051.493a2.944,2.944,0,0,0-.57,2.184V50.237q2.165.2,2.834.236c.445.026.879.039,1.3.039a20.027,20.027,0,0,0,8.739-1.574q5.785-2.874,5.786-10.746,0-7.4-6.378-10.155" transform="translate(56.081 2.817)" fill="#fff"/>
          <rect id="Rectangle_22271" data-name="Rectangle 22271" width="241.077" height="3.359" transform="translate(367.056 1.285)" fill="#fff"/>
          <path id="Path_16271" data-name="Path 16271" d="M544.939,22.423V40.884h-1.456a23.017,23.017,0,0,0-2.539-8.462,13.2,13.2,0,0,0-5.216-5,14.419,14.419,0,0,0-7.006-1.85,9.531,9.531,0,0,0-6.771,2.5,7.6,7.6,0,0,0-2.677,5.688,6.738,6.738,0,0,0,1.694,4.448q2.439,2.951,11.611,7.872a80.345,80.345,0,0,1,10.215,6.16,15.012,15.012,0,0,1,4.212,5.057,13.321,13.321,0,0,1,1.476,6.1,13.815,13.815,0,0,1-4.7,10.451,17.033,17.033,0,0,1-12.1,4.389,25.621,25.621,0,0,1-4.369-.355,44.549,44.549,0,0,1-5.058-1.437,22.694,22.694,0,0,0-4.861-1.239,2.061,2.061,0,0,0-1.555.59,4.7,4.7,0,0,0-.847,2.441h-1.456v-18.3h1.456a25.9,25.9,0,0,0,2.756,8.6,13.234,13.234,0,0,0,5.3,4.743,16.41,16.41,0,0,0,7.813,1.889,11.111,11.111,0,0,0,7.774-2.6,8.044,8.044,0,0,0,2.854-6.14,8.326,8.326,0,0,0-1.082-3.976,11.846,11.846,0,0,0-3.364-3.74,96.68,96.68,0,0,0-8.385-5.018,81.543,81.543,0,0,1-9.742-6.121,16.535,16.535,0,0,1-4.389-5.038,12.508,12.508,0,0,1-1.5-6.062,13.142,13.142,0,0,1,4.409-9.9,15.708,15.708,0,0,1,11.218-4.153,22.508,22.508,0,0,1,9.015,2.086,9.275,9.275,0,0,0,3.109.984,2.342,2.342,0,0,0,1.674-.61,4.87,4.87,0,0,0,1.043-2.46Z" transform="translate(61.384 2.683)" fill="#fff"/>
        </g>
      </g>
      <g id="Group_25981" data-name="Group 25981" transform="translate(262.012 338.688)">
        <path id="Path_16225" data-name="Path 16225" d="M130.082,65.041A65.041,65.041,0,1,1,65.041,0a65.041,65.041,0,0,1,65.041,65.041" fill="url(#linear-gradient)"/>
        <path id="Path_16226" data-name="Path 16226" d="M113.521,107.676H64.46v0A42.989,42.989,0,0,1,28.3,42.184L33.212,35.5,76.763,94.173a32.038,32.038,0,0,0,8.688-5.237L40.328,29.4l6.2-3.571A42.992,42.992,0,0,1,99.964,89.6Zm-79.2-51.528a31.785,31.785,0,0,0,30.15,40.31Zm23.7-22.484L92.769,80A31.8,31.8,0,0,0,58.014,33.664" transform="translate(0.356 0.353)" fill="#fff"/>
        <g id="Group_25979" data-name="Group 25979" transform="translate(22.188 21.712)">
          <path id="Path_16214" data-name="Path 16214" d="M77.082,31.212A43.329,43.329,0,1,1,33.753,74.541,43.329,43.329,0,0,1,77.082,31.212" transform="translate(-33.753 -31.212)" fill="#fff"/>
          <path id="Path_16215" data-name="Path 16215" d="M100.286,47.336A35.891,35.891,0,0,0,89.628,39.9a10.062,10.062,0,0,0,1-3.468l-.174-.075a28.334,28.334,0,0,1-1.889,3.106,38.566,38.566,0,0,1-2.484,3.212l2.045.023c-2.59,5.425-9.951,7.8-9.951,7.8-.019,1.677-2.578,4.642-2.578,4.642a26.966,26.966,0,0,0,8.193-3.989c17.626.81,21.927,11.131,23.133,13.079.171.275.038.536,0,.494-3.957-6.092-9.657-8.1-10.031-7.745l1.862,2.3a41.837,41.837,0,0,0-14.841-4s12.24,2.131,18.939,10.9a33.353,33.353,0,0,1,6.5,14.878c.042.293.067.523.078.686A35.957,35.957,0,0,0,110.64,72.7a35.5,35.5,0,0,0-10.35-25.37ZM81.16,37.275l-.512-.088-.442-.071h-.064l-.787-.107H79.3l-.436-.052c-.283-.032-.567-.059-.852-.086h-.1l-.32-.023c-.336-.028-.674-.051-1.016-.067-.294-.013-.591-.028-.886-.032H74.283c-.457,0-.91.019-1.362.042l-.451.025A35.638,35.638,0,0,0,38.9,72.57a13.475,13.475,0,0,0,.11,2.065,6.429,6.429,0,0,0,.207.9.437.437,0,0,0,.028.1,26.053,26.053,0,0,0,2.429,5.371,27.889,27.889,0,0,0,2.032,3.073,14.058,14.058,0,0,0,1,1.22l.109.119.129.143c.125.136.252.277.378.4l.083.084a22.956,22.956,0,0,0,6.3,4.486,30.349,30.349,0,0,0,11.472,2.991,27.808,27.808,0,0,0,4.155-.029h.2a17.016,17.016,0,0,0,4.379-.922A10.476,10.476,0,0,0,75.2,90.863a12.767,12.767,0,0,0,3.151-3.355A12.008,12.008,0,0,0,80.343,81.2c.2-5.309-5.16-11.272-12.692-11.96-.239-.023-.486-.038-.732-.051h-1.4l-.406.019-.349.025-.306.028c-.2.019-.406.044-.612.075q-.78.107-1.584.275c-4.912,1.126-3.2,5.063-3.148,5.192a16.045,16.045,0,0,1-3.413-.69l-.049-.016-.219-.075a9.363,9.363,0,0,1-3.206-1.889h-.014l-.088-.086a8.8,8.8,0,0,1-1.536-2.028h-.014a22.859,22.859,0,0,0-1.964,1.38,25.685,25.685,0,0,1-.293-7.64c.6-2.884,5.189-6.345,5.189-6.345s-.573,2.964,2.061,2.992,5.706-4.116,5.825-3.757,2.519.393,2.519.393-1.081,0-2.019-1.931,1.981-4.77,6.809-6.512A24.792,24.792,0,0,0,77.308,42.7c1.2.136,1.523,3.493,1.523,3.493a37.146,37.146,0,0,0,8.509-7.145,35.4,35.4,0,0,0-6.195-1.775h.015Zm-9.373,24.19v.01" transform="translate(-31.44 -28.9)" fill="#2188c6"/>
          <path id="Path_16216" data-name="Path 16216" d="M96.093,91.44a22.267,22.267,0,0,1-12.946,8.241q-1.357.276-2.735.458l-.367.044-.351.038h-.107a41.731,41.731,0,0,1-18.82-2.607A30.756,30.756,0,0,1,54.8,94.534a36.308,36.308,0,0,1-5.548-4.6A39.867,39.867,0,0,1,39,66.905a6.378,6.378,0,0,0,.207.9,24.21,24.21,0,0,0,2.461,5.3,27.784,27.784,0,0,0,2.028,3.073,14.58,14.58,0,0,0,1,1.217l.107.119.132.146c.125.136.252.27.378.4l.083.086a22.954,22.954,0,0,0,6.3,4.486,30.4,30.4,0,0,0,11.473,2.993,28.188,28.188,0,0,0,4.154-.029h.206A17.139,17.139,0,0,0,71.9,84.67a10.406,10.406,0,0,0,3.289-1.707,12.731,12.731,0,0,0,3.148-3.355,12.017,12.017,0,0,0,1.99-6.315c.065-5.59-5.921-11.937-14.323-11.864-.191,0-.381,0-.571.017h-.4l-.391.033c-.219.019-.433.042-.652.07h-.051c-.551.074-1.1.172-1.655.3-2.87.657-3.478,2.276-3.478,3.534a4.44,4.44,0,0,0,.335,1.655h-.025a16.1,16.1,0,0,1-3.412-.69l-.052-.017-.219-.074a9.3,9.3,0,0,1-3.206-1.893h-.017l-.088-.083a8.252,8.252,0,0,1-.883-1.012,9.616,9.616,0,0,1-.657-1.02,30.179,30.179,0,0,1,14.991-4.632l.551-.023q1.12-.037,2.248,0,1.774.054,3.557.275a29.482,29.482,0,0,1,5.3,1.1h.019V58.96h.014A12.2,12.2,0,0,0,75.727,56.8c-.732-.849-2.647-3.081-3.919-3.063l.373-.023q1.167-.054,2.351,0A27.017,27.017,0,0,1,94.49,63.39l.1.1.116.154a28.559,28.559,0,0,1,3.5,6.048A34.248,34.248,0,0,1,99.979,77.6a19.194,19.194,0,0,1-3.887,13.834Z" transform="translate(-31.396 -21.111)" fill="#162b4e"/>
          <path id="Path_16217" data-name="Path 16217" d="M92.516,91.445A22.268,22.268,0,0,1,79.57,99.686q-1.357.276-2.731.458l-.37.043-.349.038h-.109c-.245.025-.493.045-.741.064a39.912,39.912,0,0,1-7.315-.1A31.612,31.612,0,0,1,57.2,97.618l-.277-.145c.458-.023.929,0,1.394,0a24.9,24.9,0,0,0,16.555-6.541,22.47,22.47,0,0,0,7.882-16.36c0-.639-.03-1.287-.088-1.932l-.029-.294-.12.275a12.591,12.591,0,0,1-7.753,6.967l-.08.025a11.028,11.028,0,0,0,1.544-3.258,11.983,11.983,0,0,0,.5-3.08c.064-5.332-5.393-11.356-13.191-11.825h-.106l-.416-.017H61.446a3.7,3.7,0,0,0-.4.033q-.322.028-.652.07h-.049c-.552.071-1.12.172-1.691.3-4.909,1.123-3.2,5.063-3.147,5.193a9.729,9.729,0,0,1-8.553-4.8,30.2,30.2,0,0,1,15.014-4.634l.551-.022c.748-.025,1.5-.025,2.248,0q1.763.057,3.535.275a29.007,29.007,0,0,1,5.323,1.1h.017a12.526,12.526,0,0,0-1.538-2.158c-.726-.844-2.626-3.054-3.9-3.062h-.032c.13,0,.275-.017.4-.023q1.17-.054,2.349,0a27.014,27.014,0,0,1,19.937,9.673l.1.1c.046.049.1.1.141.152a17.864,17.864,0,0,1,3.5,6.048,34.244,34.244,0,0,1,1.771,7.909,19.18,19.18,0,0,1-3.864,13.853Z" transform="translate(-27.819 -21.116)" fill="#21326f"/>
          <path id="Path_16218" data-name="Path 16218" d="M80.173,33.382s-3.544,9.338-5.926,10.395,2.065.161,2.065.161l-9.127,6.984s-1.88,4.55-2.964,5.422c0,0,6.684-.854,12.063-7.767,5.047-6.489,3.889-15.2,3.889-15.2" transform="translate(-20.062 -30.237)" fill="#162b4e"/>
          <path id="Path_16219" data-name="Path 16219" d="M66.387,47.626A35.191,35.191,0,0,0,79.325,33.344s-1.971,7-5.48,10.34l2.312-.371a22.243,22.243,0,0,1-10.017,8.2,24.553,24.553,0,0,1,.248-3.892Z" transform="translate(-19.2 -30.254)" fill="#fff"/>
          <path id="Path_16220" data-name="Path 16220" d="M48.607,55.358a1.015,1.015,0,0,1,1.275.723l.035-.007c.09-.551.1-1.81-1.015-1.513S46.889,56.7,46.889,56.7l.151-.032a3.824,3.824,0,0,1,1.567-1.312Z" transform="translate(-27.85 -20.74)" fill="#3a9dd7"/>
          <path id="Path_16221" data-name="Path 16221" d="M49.007,54c-1.2.272-2.119,2.955-2.119,2.955l.154-.288c.3-.532,1.019-1.632,1.86-1.854.881-.232,1.059.5,1.051,1.09a.061.061,0,0,0,.013-.028c.11-.719.536-2.213-.958-1.875" transform="translate(-27.851 -20.994)" fill="#162b4e"/>
          <path id="Path_16222" data-name="Path 16222" d="M57.548,51.213a2.743,2.743,0,0,1,1.135-2.435,30.621,30.621,0,0,1,4.45-1.958c1.19-.53,2.636-1.264,2.655-1.591a7.178,7.178,0,0,1-1.575,3.549c-1.21,1.116-2.49,2.435-6.664,2.435" transform="translate(-23.063 -24.913)" fill="#162b4e"/>
          <path id="Path_16223" data-name="Path 16223" d="M59.162,50.214a6.929,6.929,0,0,0,2.619-1.6,5.274,5.274,0,0,0,1.106-1.677,1.374,1.374,0,0,0,.106-.562,27.814,27.814,0,0,0-4.31,1.9A2.738,2.738,0,0,0,57.545,50.7a12.22,12.22,0,0,0,1.616-.486Z" transform="translate(-23.064 -24.396)" fill="#2797d2"/>
          <path id="Path_16224" data-name="Path 16224" d="M92.97,58.87s-5.487-3.652-9.235-3.513c-7.209-4.522-10.589-5.163-13.776-5.937.113-.223,9.114.981,14.841,4l-1.938-2.361s2.977-.241,7.831,4.892c3.165,3.348,2.277,2.916,2.277,2.916Z" transform="translate(-17.484 -23.042)" fill="#162b4e"/>
        </g>
      </g>
    </g>
  </g>
</svg>
